control3min_grf.mot
version=1
nRows=10
nColumns 19
inDegrees=yes
endheader
time	1_ground_force_vx	1_ground_force_vy	1_ground_force_vz	1_ground_force_px	1_ground_force_py	1_ground_force_pz	1_ground_torque_x	1_ground_torque_y	1_ground_torque_z	2_ground_force_vx	2_ground_force_vy	2_ground_force_vz	2_ground_force_px	2_ground_force_py	2_ground_force_pz	2_ground_torque_x	2_ground_torque_y	2_ground_torque_z
            0.005000	            0.320751	            1.441991	            0.051243	           -0.052616	            0.006197	           -0.391669	            0.260177	           -0.415995	            0.067597	            0.142153	           -0.548757	           -0.893665	           -0.102128	            0.006073	           -0.686065	           -0.244277	            0.008840	           -0.075263
            0.005500	            0.549394	            2.704485	           -0.081483	           -0.052616	            0.006197	           -0.391669	            0.208801	            0.342055	            0.080703	            0.328949	           -0.364435	           -0.752303	           -0.102128	            0.006073	           -0.686065	           -0.206391	           -0.076166	           -0.056733
            0.006000	            0.412501	            2.342944	            0.146592	           -0.052616	            0.006197	           -0.391669	            0.293030	            0.739482	            0.076347	            0.653699	            0.556487	           -0.467589	           -0.102128	            0.006073	           -0.686065	           -0.224698	           -0.208572	           -0.057197
            0.006500	            0.596100	            2.342586	            0.237849	           -0.052616	            0.006197	           -0.391669	            0.326737	            0.443787	            0.082814	            0.232132	            0.554295	           -0.279697	           -0.102128	            0.006073	           -0.686065	           -0.243357	           -0.237199	           -0.000739
            0.007000	            0.367212	            1.801351	            0.327811	           -0.052616	            0.006197	           -0.391669	            0.285807	           -0.148062	            0.108220	            0.702646	            0.003374	           -0.234939	           -0.102128	            0.006073	           -0.686065	           -0.205965	           -0.189733	           -0.019437
            0.007500	            0.229404	            2.702850	            0.286161	           -0.052616	            0.006197	           -0.391669	            0.362371	           -0.776663	            0.099438	            0.231365	            0.739280	           -0.513681	           -0.102128	            0.006073	           -0.686065	           -0.131240	           -0.085146	           -0.113349
            0.008000	            0.321141	            1.801736	            0.236213	           -0.052616	            0.006197	           -0.391669	            0.289597	           -0.794721	            0.009493	            0.140824	           -0.180461	           -0.892351	           -0.102128	            0.006073	           -0.686065	           -0.281788	           -0.010134	           -0.094165
            0.008500	            0.413153	            1.260563	            0.325378	           -0.052616	            0.006197	           -0.391669	            0.323248	           -0.211932	           -0.078154	           -0.047946	            0.187494	           -0.984813	           -0.102128	            0.006073	           -0.686065	           -0.300982	            0.103231	           -0.093752
            0.009000	            0.642303	            1.621139	            0.326355	           -0.052616	            0.006197	           -0.391669	            0.323011	            0.462781	           -0.027904	            0.233941	            0.003356	           -0.704021	           -0.102128	            0.006073	           -0.686065	           -0.356731	           -0.076238	           -0.188620
            0.009500	            0.458344	            2.342953	            0.146478	           -0.052616	            0.006197	           -0.391669	            0.386903	            0.693304	            0.077870	            0.422834	           -0.365603	           -0.329990	           -0.102128	            0.006073	           -0.686065	           -0.206014	           -0.189329	           -0.132538
